<svg width="24" height="24" viewBox="0 0 24 24" fill="none" xmlns="http://www.w3.org/2000/svg">
<path d="M12.002 21.0409C9.54201 21.0409 9.25201 21.0279 8.29201 20.9859C7.54338 20.9613 6.80444 20.8091 6.10701 20.5359C5.51019 20.3036 4.96819 19.9498 4.51543 19.4969C4.06267 19.0439 3.70905 18.5018 3.47701 17.9049C3.21432 17.2049 3.07263 16.4654 3.05801 15.7179C3.00201 14.7599 3.00201 14.4459 3.00201 12.0049C3.00201 9.53788 3.01501 9.24988 3.05801 8.29488C3.07295 7.5484 3.21464 6.80989 3.47701 6.11088C3.70878 5.51322 4.06265 4.97046 4.51601 4.51727C4.96937 4.06408 5.51226 3.71042 6.11001 3.47888C6.80866 3.21509 7.54736 3.07303 8.29401 3.05888C9.24901 3.00488 9.56301 3.00488 12.002 3.00488C14.482 3.00488 14.767 3.01788 15.712 3.05888C16.46 3.07288 17.202 3.21488 17.902 3.47888C18.4996 3.71069 19.0424 4.06444 19.4957 4.5176C19.949 4.97075 20.303 5.51338 20.535 6.11088C20.802 6.82088 20.945 7.57088 20.956 8.32788C21.012 9.28588 21.012 9.59888 21.012 12.0389C21.012 14.4789 20.998 14.7989 20.956 15.7459C20.9411 16.4941 20.799 17.2343 20.536 17.9349C20.3034 18.5322 19.9491 19.0746 19.4957 19.5277C19.0422 19.9808 18.4995 20.3347 17.902 20.5669C17.202 20.8289 16.463 20.9709 15.716 20.9859C14.761 21.0409 14.448 21.0409 12.002 21.0409ZM11.968 4.58788C9.52201 4.58788 9.26801 4.59988 8.31301 4.64288C7.74266 4.65034 7.17781 4.75553 6.64301 4.95388C6.25295 5.1034 5.89854 5.33299 5.60263 5.62786C5.30673 5.92274 5.07589 6.27634 4.92501 6.66588C4.72501 7.20588 4.62001 7.77688 4.61401 8.35288C4.56101 9.32188 4.56101 9.57588 4.56101 12.0049C4.56101 14.4049 4.57001 14.6959 4.61401 15.6589C4.62301 16.2289 4.72801 16.7939 4.92501 17.3289C5.23101 18.1159 5.85501 18.7379 6.64401 19.0399C7.17812 19.2395 7.74286 19.3447 8.31301 19.3509C9.28101 19.4069 9.53601 19.4069 11.968 19.4069C14.421 19.4069 14.675 19.3949 15.622 19.3509C16.1924 19.344 16.7574 19.2388 17.292 19.0399C17.68 18.8892 18.0324 18.6595 18.3268 18.3653C18.6212 18.071 18.8511 17.7188 19.002 17.3309C19.202 16.7909 19.307 16.2189 19.313 15.6429H19.324C19.367 14.6869 19.367 14.4319 19.367 11.9889C19.367 9.54588 19.356 9.28888 19.313 8.33388C19.304 7.76434 19.1988 7.20041 19.002 6.66588C18.8515 6.27743 18.6217 5.92459 18.3273 5.62983C18.0329 5.33508 17.6803 5.10487 17.292 4.95388C16.7575 4.75457 16.1925 4.64934 15.622 4.64288C14.655 4.58788 14.402 4.58788 11.968 4.58788ZM12.002 16.6239C11.0876 16.6245 10.1935 16.3539 9.4329 15.8463C8.67228 15.3387 8.07927 14.617 7.72888 13.7723C7.37848 12.9277 7.28645 11.9981 7.46441 11.1012C7.64236 10.2042 8.08233 9.38022 8.72865 8.73334C9.37496 8.08647 10.1986 7.64579 11.0954 7.46706C11.9922 7.28832 12.9218 7.37955 13.7668 7.72921C14.6117 8.07888 15.334 8.67126 15.8422 9.43144C16.3504 10.1916 16.6218 11.0855 16.622 11.9999C16.6204 13.2251 16.1333 14.3997 15.2673 15.2664C14.4014 16.1331 13.2272 16.6212 12.002 16.6239ZM12.002 8.99788C11.4087 8.99788 10.8287 9.17383 10.3353 9.50347C9.84196 9.83312 9.45744 10.3017 9.23038 10.8498C9.00331 11.398 8.9439 12.0012 9.05966 12.5832C9.17541 13.1651 9.46114 13.6996 9.88069 14.1192C10.3003 14.5388 10.8348 14.8245 11.4167 14.9402C11.9987 15.056 12.6019 14.9966 13.1501 14.7695C13.6982 14.5425 14.1668 14.1579 14.4964 13.6646C14.8261 13.1712 15.002 12.5912 15.002 11.9979C15.0002 11.2028 14.6835 10.4408 14.1213 9.8786C13.5591 9.3164 12.7971 8.99973 12.002 8.99788ZM16.802 8.28488C16.6604 8.28436 16.5204 8.25595 16.3898 8.20129C16.2592 8.14663 16.1407 8.06679 16.0409 7.96632C15.8395 7.7634 15.727 7.48879 15.728 7.20288C15.7291 6.91698 15.8437 6.64321 16.0466 6.44179C16.2495 6.24038 16.5241 6.12782 16.81 6.12888C17.0959 6.12994 17.3697 6.24454 17.5711 6.44745C17.7725 6.65036 17.8851 6.92498 17.884 7.21088C17.883 7.49679 17.7684 7.77056 17.5654 7.97197C17.3625 8.17339 17.0879 8.28594 16.802 8.28488Z" fill="white"/>
</svg>
